PathFileType	4	(X/Y/Z)	D:\TRACE\v60_Jaco2_6-2-23\JustArmDRS_Motion2_3-v60.trc
DataRate	CameraRate	NumFrames	NumMarkers	Units	OrigDataRate	OrigDataStartFrame	OrigNumFrames
100.00	100.00	      17	9	mm	100.00	4356	      6969
Frame#	Time	front left toe			Front right toe			aft left toe			aft right toe			Arm			FL body			FR body			AL Body			AR Body			
		X1	Y1	Z1	X2	Y2	Z2	X3	Y3	Z3	X4	Y4	Z4	X5	Y5	Z5	X6	Y6	Z6	X7	Y7	Z7	X8	Y8	Z8	X9	Y9	Z9	

4356	43.550	-209.30902	29.13458	-160.07542	197.81866	25.05033	-205.27541	-143.76158	4.25376	444.85455	260.68420	2.64030	432.26035	108.59221	1142.30615	-627.08453	-82.78750	602.98364	-294.10040	75.95566	598.99139	-313.64105	30.90549	555.82263	643.25464	188.70424	546.69696	626.39349	
4357	43.560	-210.26425	28.38247	-160.10855	196.65656	24.53748	-205.58769	-144.99495	5.11448	444.49539	259.24246	3.38948	432.04303	106.45389	1140.59924	-628.40900	-84.38027	602.55701	-294.40747	74.60120	598.72705	-314.07498	29.83153	556.36945	642.98486	186.15767	547.13879	625.10419	
4358	43.570	-211.61525	28.04241	-160.69437	195.70139	24.24232	-205.98955	-146.09840	5.95245	444.18613	258.43430	4.18455	431.93494	103.86069	1138.76892	-629.70789	-85.86277	601.94293	-295.26144	73.22867	598.68976	-315.29562	28.21065	557.33704	642.35132	184.63678	547.96277	624.63977	
4359	43.580	-212.71259	27.55375	-161.11630	194.18535	23.71293	-206.43344	-147.48541	6.82730	444.03613	256.89462	4.81371	431.58887	101.36731	1137.35425	-631.08594	-87.39360	601.72620	-295.61847	71.81647	598.20477	-315.65067	26.91952	557.93164	641.88879	183.24611	549.28302	624.95319	
4360	43.590	-213.59753	26.81628	-161.12430	193.40536	23.36086	-206.64584	-148.32445	7.70704	443.75668	256.08313	5.92334	431.33585	99.09759	1135.77393	-632.31458	-88.92807	600.85919	-296.34119	69.79002	597.72919	-315.76425	25.49130	558.80341	641.01501	181.38962	550.02472	623.71155	
4361	43.600	-214.90555	26.63321	-161.67415	191.98367	22.77386	-207.17079	-149.67471	8.42247	443.62308	254.73137	6.61745	430.95459	96.93819	1134.41003	-633.71521	-90.20030	600.27051	-296.73276	68.68034	597.48376	-316.80038	23.85662	559.84351	640.85919	179.92854	551.02319	622.95514	
4362	43.610	-215.99123	26.05418	-161.89093	191.25269	22.37823	-207.36113	-150.84315	9.23661	443.28653	254.05177	7.59843	430.93356	94.49562	1133.10828	-635.28314	-92.01398	599.87939	-297.57611	67.55268	597.12677	-317.52774	22.12121	560.53558	640.29993	178.38670	552.00366	622.63525	
4363	43.620	-217.19669	25.53878	-162.21289	189.77600	21.80443	-207.68497	-152.06892	10.05156	442.98743	252.43274	8.31989	430.62634	92.11315	1131.83838	-636.46021	-93.73753	599.27332	-298.18808	65.66108	596.52124	-317.95840	20.60599	561.51764	639.86548	176.82269	554.00793	623.33875	
4364	43.630	-218.54997	25.31371	-162.36191	188.70280	21.32961	-208.00275	-153.33542	10.93490	442.87146	251.51151	9.32167	430.47781	89.74162	1130.78674	-638.01306	-95.05392	598.70483	-298.64453	63.56479	596.09180	-318.64279	18.62282	562.58240	639.10876	175.13686	555.27216	623.13867	
4365	43.640	-219.38800	24.77596	-162.82573	187.70006	20.98181	-208.32945	-152.97037	11.08121	442.62738	250.15016	10.27485	430.02408	87.26678	1129.75171	-639.55029	-96.35947	598.05792	-299.39206	62.22898	595.74445	-319.07101	17.30910	563.48999	638.62091	173.35194	555.95422	621.44843	
4366	43.650	-220.54614	24.29574	-163.07301	186.42300	20.56765	-208.60614	-153.96736	11.88979	442.43436	249.05399	11.16228	429.74573	84.78227	1128.67444	-640.99927	-98.04182	597.66071	-300.07068	61.45358	595.60413	-319.97147	15.66004	564.28888	637.53918	171.80002	557.31860	621.48407	
4367	43.660	-222.01964	24.08183	-163.35765	185.11884	20.16138	-208.98943	-155.01709	12.40065	442.20346	248.04604	11.91551	429.33112	82.48739	1127.88208	-642.30817	-99.54367	597.21436	-300.86017	59.89774	595.56158	-320.60577	13.95236	564.95343	636.97559	170.11618	558.00104	620.21375	
4368	43.670	-222.94679	23.60816	-163.91676	184.46886	19.87353	-209.30408	-156.56099	13.40088	441.70242	246.81644	12.87919	428.98587	80.24599	1127.08435	-643.52661	-101.08180	596.54474	-301.64215	57.46920	595.12006	-321.13306	11.86762	566.01123	636.65082	168.54906	559.06006	619.63141	
4369	43.680	-223.86511	23.11255	-164.15240	183.07686	19.33101	-209.78725	-157.26328	14.10503	441.54681	246.15498	13.93968	428.77634	77.83947	1126.57166	-644.77570	-102.59727	596.10828	-302.25113	56.22314	594.53552	-321.28824	10.27256	566.93445	636.01392	166.61224	560.34680	619.23071	
4370	43.690	-225.20215	22.61188	-164.42473	182.21550	18.97845	-209.90417	-158.26494	14.99826	441.33670	244.33275	14.47461	428.29199	75.27393	1125.81238	-646.15637	-104.30485	595.55005	-303.07669	54.84895	593.84943	-321.80673	8.51383	567.58746	635.42371	164.69679	561.17554	618.08752	
4371	43.700	-226.32074	22.27380	-164.88326	180.84109	18.36983	-210.37155	-159.63553	16.21536	440.78915	243.50856	15.70550	428.16550	73.31815	1125.21606	-647.62634	-105.64194	594.84143	-303.65021	53.62868	594.22632	-323.21210	6.82085	568.65979	634.75714	162.89464	561.90460	617.25336	
4372	43.710	-226.97624	21.57082	-165.03201	179.57819	17.91927	-210.66203	-160.60379	16.74055	440.47925	242.02406	16.55088	428.02017	71.06477	1124.11096	-649.05200	-107.32381	594.56934	-304.44989	52.13391	593.87878	-324.02676	5.16868	569.22888	634.05249	161.25468	563.01697	616.70300	
